<svg xmlns="http://www.w3.org/2000/svg" version="1.1" width="318" height="319">
<path d="M0 0 C2.64578786 0.02148665 5.28886227 0.00002068 7.93457031 -0.02539062 C23.86865857 -0.05226838 39.32511424 2.50573562 54.39550781 7.77148438 C55.26199951 8.06885498 56.12849121 8.36622559 57.02124023 8.67260742 C76.71133015 15.64327271 94.12137344 26.6652322 109.64550781 40.52148438 C110.80179687 41.49601562 110.80179687 41.49601562 111.98144531 42.49023438 C116.69653438 46.46463895 120.75229073 50.74271996 124.64550781 55.52148438 C125.41894531 56.46894531 126.19238281 57.41640625 126.98925781 58.39257812 C141.24960013 76.20965687 151.46623671 96.56881071 157.64550781 118.52148438 C157.96310059 119.59970459 157.96310059 119.59970459 158.28710938 120.69970703 C161.93349652 133.62964561 162.06279584 146.75006289 162.14550781 160.08398438 C162.1613089 161.37346481 162.1613089 161.37346481 162.1774292 162.68899536 C162.33333781 179.16877161 159.9860463 195.19153869 154.64550781 210.83398438 C154.21492065 212.10447632 154.21492065 212.10447632 153.77563477 213.40063477 C146.7674336 233.04833918 135.88302422 251.13610097 121.65332031 266.35742188 C119.93196467 268.21273516 118.3489369 270.10869311 116.77050781 272.08398438 C112.66635781 276.89846803 107.61250985 280.64448147 102.64550781 284.52148438 C101.71609375 285.2665625 100.78667969 286.01164062 99.82910156 286.77929688 C81.88867671 300.78991438 60.78443372 310.45025258 38.64550781 315.52148438 C37.96198242 315.67987793 37.27845703 315.83827148 36.57421875 316.00146484 C-4.8010649 325.24572615 -48.02677479 316.43390507 -83.82324219 294.41992188 C-119.73560614 271.18795447 -145.31829917 234.37952078 -154.35449219 192.52148438 C-154.53850586 191.7108252 -154.72251953 190.90016602 -154.91210938 190.06494141 C-156.73732147 180.87543774 -156.72671642 171.67545225 -156.72509766 162.34326172 C-156.72944096 159.55437716 -156.76578081 156.76711868 -156.80371094 153.97851562 C-156.90405616 138.0666798 -154.77432148 122.51621641 -149.22949219 107.52148438 C-148.93582764 106.71155029 -148.64216309 105.90161621 -148.33959961 105.06713867 C-140.87888307 85.16614229 -130.21465337 67.20845308 -115.51074219 51.81835938 C-113.30272456 49.52905866 -113.30272456 49.52905866 -111.28808594 46.92382812 C-96.42080356 28.45235609 -71.1478092 15.31856709 -49.10449219 7.77148438 C-48.33298828 7.50198975 -47.56148438 7.23249512 -46.76660156 6.95483398 C-31.44513821 1.95193862 -16.0713241 -0.1543607 0 0 Z M-102.91699219 60.77148438 C-116.180937 75.73593493 -126.72659702 92.62183391 -133.35449219 111.52148438 C-133.59393555 112.20001465 -133.83337891 112.87854492 -134.08007812 113.57763672 C-146.25278804 149.00680698 -143.35876167 188.87886494 -127.33105469 222.67773438 C-121.71167006 233.90497669 -114.66092926 244.11954058 -106.35449219 253.52148438 C-105.93055176 254.01100586 -105.50661133 254.50052734 -105.06982422 255.00488281 C-85.49352871 277.56375604 -60.06571641 291.92424754 -31.35449219 299.52148438 C-30.10796875 299.86179687 -28.86144531 300.20210938 -27.57714844 300.55273438 C-7.72338042 304.97834211 17.00651028 304.7007679 36.64550781 299.52148438 C37.96968166 299.21269802 39.29390189 298.90411049 40.61816406 298.59570312 C58.72048201 294.08406169 76.20740475 285.30485347 90.64550781 273.52148438 C91.52408447 272.81572266 91.52408447 272.81572266 92.42041016 272.09570312 C122.72759967 247.58479392 141.66471661 213.52056442 145.89550781 174.70898438 C146.57307874 167.63041073 147.04783067 160.63210365 146.64550781 153.52148438 C146.60973633 152.86841309 146.57396484 152.2153418 146.53710938 151.54248047 C144.14933746 112.89369056 126.6001723 76.94182032 97.90576172 50.9453125 C76.8391809 32.82119327 50.37592099 19.98216803 22.64550781 16.52148438 C21.81921875 16.41191406 20.99292969 16.30234375 20.14160156 16.18945312 C-25.55154393 11.08217159 -71.16782665 27.47357906 -102.91699219 60.77148438 Z " fill="#285B8F" transform="translate(156.3544921875,-0.521484375)"/>
<path d="M0 0 C2.93804996 -0.08086376 5.87388075 -0.1404283 8.8125 -0.1875 C9.64587891 -0.21263672 10.47925781 -0.23777344 11.33789062 -0.26367188 C12.54155273 -0.27817383 12.54155273 -0.27817383 13.76953125 -0.29296875 C14.87711792 -0.31653442 14.87711792 -0.31653442 16.00708008 -0.34057617 C18 0 18 0 21 3 C17.37 16.2 13.74 29.4 10 43 C15.94 42.505 15.94 42.505 22 42 C21.53184857 49.37338498 20.3075818 56.20240608 15.3125 61.9375 C12.96954676 63.01399203 10.87110338 63.52718053 8.35546875 64.06640625 C7.13380005 64.33046265 7.13380005 64.33046265 5.88745117 64.59985352 C5.26459229 64.73190186 4.6417334 64.8639502 4 65 C3.75878418 65.94842773 3.51756836 66.89685547 3.26904297 67.87402344 C2.36410341 71.40639881 1.42882156 74.9301498 0.484375 78.45214844 C0.08059927 79.97471942 -0.31502211 81.49947805 -0.70214844 83.02636719 C-1.26163991 85.22703365 -1.85045203 87.41804094 -2.4453125 89.609375 C-2.6112088 90.2886908 -2.7771051 90.96800659 -2.94802856 91.66790771 C-3.97544728 95.32843591 -4.90926106 96.92660079 -7.89501953 99.34179688 C-10.3260323 100.64007009 -12.68537269 101.88284608 -15.234375 102.921875 C-16.34232422 103.37626953 -16.34232422 103.37626953 -17.47265625 103.83984375 C-18.59994141 104.29037109 -18.59994141 104.29037109 -19.75 104.75 C-20.51699219 105.06582031 -21.28398437 105.38164062 -22.07421875 105.70703125 C-27.72226732 108 -27.72226732 108 -30 108 C-27.70198799 97.97347832 -25.26391362 88.00078753 -22.57543945 78.07104492 C-21.4243753 74.09240201 -21.4243753 74.09240201 -21 70 C-32.88 72.31 -44.76 74.62 -57 77 C-57.845625 79.949375 -58.69125 82.89875 -59.5625 85.9375 C-59.84971924 86.93676514 -60.13693848 87.93603027 -60.43286133 88.96557617 C-61.9541955 94.27609272 -63.4404043 99.594313 -64.88671875 104.92578125 C-65.19730225 106.06217041 -65.50788574 107.19855957 -65.82788086 108.36938477 C-66.43806154 110.60639083 -67.04184312 112.84515312 -67.63891602 115.08569336 C-68.05741821 116.61335327 -68.05741821 116.61335327 -68.484375 118.171875 C-68.72897461 119.0803418 -68.97357422 119.98880859 -69.22558594 120.92480469 C-70 123 -70 123 -72 124 C-73.78759766 123.28735352 -73.78759766 123.28735352 -75.9140625 122.12890625 C-76.67460937 121.71962891 -77.43515625 121.31035156 -78.21875 120.88867188 C-79.40984375 120.2322168 -79.40984375 120.2322168 -80.625 119.5625 C-81.42679688 119.12873047 -82.22859375 118.69496094 -83.0546875 118.24804688 C-85.04044151 117.17243012 -87.0218546 116.08952787 -89 115 C-89.57178311 107.9650257 -87.47306438 101.7625391 -85.5 95.0625 C-85.16613281 93.90169922 -84.83226562 92.74089844 -84.48828125 91.54492188 C-83.6670641 88.6941252 -82.83743407 85.84606678 -82 83 C-83.03640625 83.28875 -84.0728125 83.5775 -85.140625 83.875 C-86.51034396 84.25026547 -87.8801397 84.62525079 -89.25 85 C-90.27287109 85.28617188 -90.27287109 85.28617188 -91.31640625 85.578125 C-94.70600912 86.49957044 -97.45778976 87 -101 87 C-100.83225092 79.69528987 -99.63791668 73.80887584 -95 68 C-89.263078 62.97406406 -82.56483107 61 -75 61 C-74.82150513 60.09556152 -74.82150513 60.09556152 -74.6394043 59.17285156 C-74.28831065 57.40425354 -73.93343307 55.63640434 -73.57568359 53.86914062 C-73.21012404 52.04723398 -72.85503644 50.22317016 -72.51416016 48.39648438 C-69.55224218 33.20386265 -69.55224218 33.20386265 -65.36523438 29.58837891 C-62.24645691 27.83880074 -59.03067205 26.869461 -55.5859375 25.96484375 C-51.11433463 24.76170006 -48.57806936 22.82917112 -45 20 C-44.34 20 -43.68 20 -43 20 C-43.59336828 27.8140752 -45.457101 35.02892377 -47.5625 42.5625 C-47.89185547 43.76197266 -48.22121094 44.96144531 -48.56054688 46.19726562 C-49.36764722 49.13323933 -50.18092529 52.06734878 -51 55 C-47.2703218 54.23162883 -43.5413607 53.45982783 -39.8125 52.6875 C-38.77673828 52.47416016 -37.74097656 52.26082031 -36.67382812 52.04101562 C-29.08992182 50.46788336 -21.5403362 48.76989836 -14 47 C-13.68361572 45.8236499 -13.68361572 45.8236499 -13.36083984 44.62353516 C-9.30800101 29.60626092 -5.1862844 14.67482746 0 0 Z " fill="#84B968" transform="translate(237,106)"/>
<path d="M0 0 C0.99 0 1.98 0 3 0 C2.54144584 9.47678602 -0.69289289 16.86573131 -7 24 C-25.09707731 38.31693123 -49.93175533 38.30587951 -72 39 C-72.08846191 40.02689941 -72.17692383 41.05379883 -72.26806641 42.11181641 C-73.0887497 48.62399626 -74.98124829 54.89405068 -76.7109375 61.2109375 C-77.08389962 62.58790538 -77.4564197 63.96499305 -77.82852173 65.3421936 C-78.60702424 68.21926204 -79.38899214 71.09535604 -80.17382812 73.97070312 C-81.1724759 77.62943434 -82.16529503 81.28971222 -83.15584373 84.95064354 C-84.10977692 88.47543277 -85.06643034 91.99948184 -86.0234375 95.5234375 C-86.20216778 96.18226299 -86.38089806 96.84108849 -86.5650444 97.51987839 C-88.60893467 105.04540093 -90.70670446 112.54634908 -93 120 C-96.19602189 119.40078808 -98.7412925 118.80652871 -101.55078125 117.15234375 C-102.47407227 116.61577148 -102.47407227 116.61577148 -103.41601562 116.06835938 C-104.04185547 115.69517578 -104.66769531 115.32199219 -105.3125 114.9375 C-105.95767578 114.56044922 -106.60285156 114.18339844 -107.26757812 113.79492188 C-108.84878152 112.86962507 -110.4249146 111.93567319 -112 111 C-111.39806365 103.41941103 -109.69165033 96.4069722 -107.69140625 89.08203125 C-107.36462387 87.8660173 -107.03784149 86.65000336 -106.70115662 85.3971405 C-106.01240733 82.8388247 -105.32130843 80.28130536 -104.62573242 77.72485352 C-103.73792394 74.46176973 -102.85745429 71.19676575 -101.97972202 67.93095875 C-101.13608303 64.79314972 -100.28883113 61.65631962 -99.44140625 58.51953125 C-99.12675919 57.35380081 -98.81211212 56.18807037 -98.4879303 54.98701477 C-98.19099777 53.89535507 -97.89406525 52.80369537 -97.58813477 51.67895508 C-97.19961082 50.24740837 -97.19961082 50.24740837 -96.80323792 48.78694153 C-95.9502905 45.82752623 -94.99273223 42.9151997 -94 40 C-94.99217529 40.08564209 -95.98435059 40.17128418 -97.0065918 40.25952148 C-100.75084328 40.58255394 -104.495163 40.90478973 -108.23950195 41.22680664 C-109.84824411 41.36526725 -111.45696863 41.50393292 -113.06567383 41.64282227 C-122.7072519 42.47508064 -132.34916499 43.28135498 -142 44 C-140.74043035 36.30514164 -139.19695992 29.69648491 -134 23.6875 C-126.15988657 19.27743619 -116.71140633 18.52257161 -107.875 18 C-106.77679932 17.92515381 -105.67859863 17.85030762 -104.54711914 17.77319336 C-97.3691316 17.29718194 -90.18717008 16.89598568 -83.0045166 16.49746704 C-78.59240444 16.25170996 -74.18065355 15.99969174 -69.76885986 15.74829102 C-66.51084901 15.5665907 -63.25236334 15.3971201 -59.99365234 15.22851562 C-27.72490309 14.19067505 -27.72490309 14.19067505 0 0 Z " fill="#285B8F" transform="translate(198,96)"/>
</svg>